<mxfile host="app.diagrams.net" modified="2023-08-25T14:16:11.050Z" agent="Mozilla/5.0 (X11; Linux x86_64; rv:103.0) Gecko/20100101 Firefox/103.0" version="21.6.9" etag="XuFIC68RK_laptC9aczS" type="github">
  <diagram name="PÃ¡gina-1" id="UNnu1jyeeeg5iWPfs7m2">
    <mxGraphModel>
      <root>
        <mxCell id="0" />
        <mxCell id="1" parent="0" />
      </root>
    </mxGraphModel>
  </diagram>
</mxfile>
